<?xml version="1.0" encoding="iso-8859-1"?>
<!-- Uploaded to: SVG Repo, www.svgrepo.com, Generator: SVG Repo Mixer Tools -->
<svg fill="#000000" height="800px" width="800px" version="1.1" id="Layer_1" xmlns="http://www.w3.org/2000/svg" xmlns:xlink="http://www.w3.org/1999/xlink" 
	 viewBox="0 0 512.004 512.004" xml:space="preserve">
<g>
	<g>
		<path d="M142.636,280.002h-22.824c-11.028,0-19.812-8.992-19.812-20.024v-8.336c0-11.024,8.784-19.64,19.812-19.64h22.796
			c2.72-12,7.548-24,14.12-36H36.124C16.272,196.002,0,212.086,0,231.938v47.752c0,19.852,16.272,36.312,36.124,36.312H156.8
			C150.212,304.002,145.372,292.002,142.636,280.002z M55.752,279.566c-13.1,0-23.752-10.656-23.752-23.752
			c0-13.096,10.652-23.752,23.752-23.752c13.1,0,23.752,10.652,23.752,23.752C79.5,268.91,68.848,279.566,55.752,279.566z"/>
	</g>
</g>
<g>
	<g>
		<path d="M475.42,196.002H355.3c8.916,16,14.62,31.604,16.192,49.664c2.976-3.648,7.444-6.048,12.508-6.048
			c8.936,0,16.208,7.264,16.208,16.204c0,8.94-7.272,16.204-16.208,16.204c-5.068,0-9.544-2.232-12.516-5.884
			c-1.588,18.064-7.312,33.86-16.252,49.86h120.192c19.852,0,36.58-16.46,36.58-36.312v-47.752
			C512,212.086,495.272,196.002,475.42,196.002z M424.004,272.018c-8.936,0-16.208-7.264-16.208-16.204
			c0-8.94,7.268-16.212,16.208-16.212s16.212,7.272,16.212,16.212S432.94,272.018,424.004,272.018z M464.056,272.018
			c-8.936,0-16.208-7.264-16.208-16.204c0-8.94,7.268-16.212,16.208-16.212s16.212,7.272,16.212,16.212
			S472.992,272.018,464.056,272.018z"/>
	</g>
</g>
<g>
	<g>
		<path d="M475.42,52.002H36.124C16.272,52.002,0,68.214,0,88.066v47.752c0,19.848,16.272,36.184,36.124,36.184h140.032
			c20.812-20,48.928-32.004,79.86-32.004c30.932,0,59.048,12.004,79.86,32.004h139.548c19.852,0,36.58-16.336,36.58-36.188V88.066
			C512,68.214,495.272,52.002,475.42,52.002z M55.752,135.69c-13.1,0-23.752-10.652-23.752-23.752
			c0-13.092,10.652-23.752,23.752-23.752c13.1,0,23.752,10.656,23.752,23.752C79.5,125.038,68.848,135.69,55.752,135.69z
			 M356,116.002c0,11.048-8.952,20-20,20H120c-11.048,0-20-8.952-20-20v-8c0-11.048,8.952-20,20-20h216c11.048,0,20,8.952,20,20
			V116.002z M384,128.146c-8.936,0-16.208-7.268-16.208-16.208S375.06,95.726,384,95.726s16.208,7.272,16.208,16.212
			S392.936,128.146,384,128.146z M424.004,128.146c-8.936,0-16.208-7.268-16.208-16.208s7.268-16.212,16.208-16.212
			s16.212,7.272,16.212,16.212S432.94,128.146,424.004,128.146z M464.056,128.146c-8.936,0-16.208-7.268-16.208-16.208
			s7.268-16.212,16.208-16.212s16.212,7.272,16.212,16.212S472.992,128.146,464.056,128.146z"/>
	</g>
</g>
<g>
	<g>
		<path d="M475.42,340.002H335.876c-20.812,20-48.928,32.004-79.86,32.004s-59.048-12.004-79.86-32.004H36.124
			C16.272,340.002,0,355.838,0,375.69v47.752c0,19.848,16.272,36.56,36.124,36.56H475.42c19.852,0,36.58-16.712,36.58-36.564V375.69
			C512,355.838,495.272,340.002,475.42,340.002z M55.752,423.314C42.656,423.314,32,412.658,32,399.562s10.652-23.752,23.752-23.752
			c13.1,0,23.752,10.656,23.752,23.752S68.848,423.314,55.752,423.314z M356,404.002c0,11.048-8.952,20-20,20H120
			c-11.048,0-20-8.952-20-20v-8c0-11.048,8.952-20,20-20h216c11.048,0,20,8.952,20,20V404.002z M384,415.77
			c-8.936,0-16.208-7.268-16.208-16.208S375.06,383.35,384,383.35s16.208,7.272,16.208,16.212S392.936,415.77,384,415.77z
			 M424.004,415.77c-8.936,0-16.208-7.268-16.208-16.208s7.268-16.212,16.208-16.212s16.212,7.272,16.212,16.212
			S432.94,415.77,424.004,415.77z M464.056,415.77c-8.936,0-16.208-7.268-16.208-16.208s7.268-16.212,16.208-16.212
			s16.212,7.272,16.212,16.212S472.992,415.77,464.056,415.77z"/>
	</g>
</g>
<g>
	<g>
		<path d="M280,228.002v-0.624c0-13.02-10.98-23.62-24-23.62s-24,10.596-24,23.616v0.628h46.928c0.232,0,0.46,0.008,0.688,0.032
			c0.228-0.024,0.46-0.032,0.688-0.032H280z"/>
	</g>
</g>
<g>
	<g>
		<path d="M256,250.946c-6.772,0-12.876,5.656-12.876,12.428c0,3.732,2.688,7.868,4.876,9.108v11.056c0,4.42,3.584,8,8,8s8-3.58,8-8
			v-11.172c4-2.248,4.82-5.5,4.82-9.164C268.82,256.43,262.772,250.946,256,250.946z"/>
	</g>
</g>
<g>
	<g>
		<path d="M256.308,163.81c-50.78,0-91.944,41.168-91.944,91.948c0,50.772,41.164,91.932,91.944,91.932
			c50.784,0,91.944-41.16,91.944-91.932C348.252,204.978,307.092,163.81,256.308,163.81z M312,288.814
			c0,14.848-12.044,27.188-26.892,27.188h-56.78c-14.848,0-28.328-13.06-28.328-27.908v-34.072c0-10.84,8-19.456,16-23.724v-2.924
			c0-21.844,18.156-39.616,40-39.616s40,17.772,40,39.616v2.924c8,4.264,16,13.604,16,24.44V288.814z"/>
	</g>
</g>
</svg>